Motion_pl05
version=1
nRows=16
nColumns=43
inDegrees=yes
endheader
time	pelvis_tilt	pelvis_list	pelvis_rotation	pelvis_tx	pelvis_ty	pelvis_tz	hip_flexion_r	hip_adduction_r	hip_rotation_r	knee_angle_r	ankle_angle_r	subtalar_angle_r	mtp_angle_r	hip_flexion_l	hip_adduction_l	hip_rotation_l	knee_angle_l	ankle_angle_l	subtalar_angle_l	mtp_angle_l	lumbar_extension	lumbar_bending	lumbar_rotation	neck_flexion	neck_lateral_bending	neck_rotation	arm_flex_r	arm_add_r	arm_rot_r	elbow_flex_r	pro_sup_r	wrist_flex_r	wrist_dev_r	hand_finger_flex_r	arm_flex_l	arm_add_l	arm_rot_l	elbow_flex_l	pro_sup_l	wrist_flex_l	wrist_dev_l	hand_finger_flex_l
      0.00250000	      3.63384470	    -10.16945290	     84.45444159	      0.04160865	      2.02395425	      1.95723239	     55.72470309	      5.77889853	     -0.38230194	    -83.34727389	     25.22730934	     -1.50318421	    -14.16793843	     56.44001546	     -9.17213800	     -1.45751759	    -89.93276721	     21.65951293	      2.05295386	     12.20339080	    -43.24427806	      2.35578746	      3.21880949	     13.20744679	     -4.58391515	      6.95002923	      8.84266307	    -18.71875586	     -6.45982969	     68.18292447	    147.90476141	     13.22179190	      8.86661677	    -31.77076623	      7.68755683	    -21.48847870	     -8.61563563	     67.17536799	    132.41653544	     -0.29304865	      8.88914601	     15.97326338
      0.00500000	      3.62331182	    -10.15831457	     84.44364593	      0.04156758	      2.02373387	      1.95713890	     55.73973982	      5.75599275	     -0.39807847	    -83.40411895	     25.22999797	     -1.49315114	    -14.16016576	     56.45330978	     -9.17125330	     -1.46199037	    -90.00294193	     21.66180116	      2.04671404	     12.23878089	    -43.30234883	      2.36398673	      3.25927960	     13.27526482	     -4.58385168	      6.93872217	      8.76680567	    -18.77427638	     -6.49985310	     67.96703220	    147.92492725	     13.22964633	      8.89011322	    -31.76799239	      7.60176872	    -21.52733803	     -8.58513906	     67.08209762	    132.40987903	     -0.28030934	      8.88973530	     15.98147959
      0.00750000	      3.61511284	    -10.15626311	     84.44652516	      0.04163171	      2.02354955	      1.95708721	     55.77312005	      5.74250181	     -0.41479523	    -83.47723421	     25.24014938	     -1.48071454	    -14.14872750	     56.47934959	     -9.17714061	     -1.45445711	    -90.06220588	     21.66169477	      2.04932225	     12.28634538	    -43.36414852	      2.36109357	      3.29593515	     13.37719997	     -4.58602303	      6.91518077	      8.73798248	    -18.80412373	     -6.54328169	     67.68504231	    147.92286475	     13.23779164	      8.90744792	    -31.76932826	      7.55720247	    -21.59201282	     -8.53139751	     66.95880052	    132.41274575	     -0.26694822	      8.88527367	     15.99525542
      0.01000000	      3.60154036	    -10.16356662	     84.44479295	      0.04168930	      2.02346350	      1.95726033	     55.80327816	      5.73449772	     -0.41321093	    -83.47511076	     25.24233696	     -1.47927323	    -14.14679227	     56.51255596	     -9.17755967	     -1.45304923	    -90.05867384	     21.66206636	      2.05157198	     12.29440873	    -43.45181593	      2.36687871	      3.30844670	     13.39352175	     -4.58605998	      6.91092548	      8.67609560	    -18.86424858	     -6.57912437	     67.58410112	    147.92248327	     13.24331063	      8.92255611	    -31.76905944	      7.49756705	    -21.66242353	     -8.55159603	     66.89254616	    132.41780554	     -0.26460654	      8.89446055	     15.99840734
      0.01250000	      3.59789084	    -10.22230351	     84.46370734	      0.04177890	      2.02332670	      1.95724311	     55.87769884	      5.71739498	     -0.45349669	    -83.49591598	     25.25327750	     -1.43303500	    -14.10786204	     56.59272089	     -9.19382042	     -1.42827760	    -90.08186773	     21.64016888	      2.12560485	     12.46365032	    -43.44052059	      2.36674138	      3.31996515	     13.62107559	     -4.57547565	      6.82449370	      8.78830151	    -18.79921746	     -6.62359420	     67.00604156	    147.75425512	     13.21659602	      8.87085792	    -31.82401389	      7.51658303	    -21.84845817	     -8.29494858	     66.61768612	    132.40545461	     -0.22447902	      8.81468704	     16.07276097
      0.01500000	      3.58813551	    -10.22328103	     84.46890171	      0.04174394	      2.02317785	      1.95732599	     55.90263024	      5.70281002	     -0.45096282	    -83.52565379	     25.25361827	     -1.43451370	    -14.10535650	     56.61890357	     -9.18881797	     -1.42743344	    -90.10493232	     21.63843878	      2.13075939	     12.47482289	    -43.52143464	      2.36704526	      3.34285705	     13.63797492	     -4.57730244	      6.82531489	      8.70200376	    -18.87765358	     -6.66049854	     66.89818190	    147.74806696	     13.22208936	      8.88752867	    -31.82626842	      7.42881580	    -21.90557485	     -8.31056864	     66.55054592	    132.40243114	     -0.22196124	      8.82080301	     16.07830405
      0.01750000	      3.57488015	    -10.20520286	     84.47234888	      0.04167963	      2.02281524	      1.95707765	     55.93737558	      5.66491824	     -0.47217051	    -83.66614060	     25.25808602	     -1.43502538	    -14.09530567	     56.63834420	     -9.17783545	     -1.42488844	    -90.22882906	     21.63138834	      2.15264692	     12.51315267	    -43.56497632	      2.37210513	      3.39753317	     13.74321235	     -4.58311136	      6.82271902	      8.61961259	    -18.93142380	     -6.67763642	     66.64433383	    147.70547954	     13.23801634	      8.90907739	    -31.83655957	      7.33137601	    -21.89743785	     -8.25111963	     66.43386045	    132.35728426	     -0.20212059	      8.80141688	     16.09856401
      0.02000000	      3.56276371	    -10.21719743	     84.47788874	      0.04161218	      2.02266694	      1.95717235	     55.96690086	      5.65238682	     -0.47439941	    -83.67449678	     25.25959942	     -1.43385967	    -14.09296161	     56.67391789	     -9.17812249	     -1.42319817	    -90.23144210	     21.63144954	      2.15820024	     12.52152216	    -43.65146035	      2.36913253	      3.41494991	     13.76389969	     -4.58283310	      6.82113856	      8.56075589	    -18.99372236	     -6.70601129	     66.55157194	    147.69781602	     13.24434116	      8.92518566	    -31.83826800	      7.26143105	    -21.94829848	     -8.26692578	     66.35911305	    132.34364670	     -0.19600914	      8.80606831	     16.10283498
      0.02250000	      3.58732720	    -10.45632544	     84.59707456	      0.04156417	      2.02197155	      1.95728738	     56.29906793	      5.55295519	     -0.60184546	    -83.79788813	     25.23262221	     -1.23951828	    -13.90413504	     57.04170841	     -9.11326226	     -1.25533067	    -90.37088702	     21.58708180	      2.52140755	     13.22345373	    -43.41985618	      2.48637248	      3.41084852	     13.88823976	     -4.61519826	      6.74788029	      8.58012921	    -19.18688096	     -6.42260238	     66.03629723	    146.66871197	     13.06288112	      8.88649110	    -32.23841954	      7.25104751	    -22.20512548	     -7.86356434	     65.83975201	    130.36197867	     -0.08103837	      8.18857894	     16.24134961
      0.02500000	      3.57793905	    -10.46368687	     84.60630792	      0.04160342	      2.02191335	      1.95748490	     56.33462569	      5.54486744	     -0.60073474	    -83.79132099	     25.23601692	     -1.24205313	    -13.90306653	     57.07758223	     -9.11451862	     -1.25821537	    -90.36221007	     21.58932874	      2.52029043	     13.22647331	    -43.52442593	      2.47952668	      3.42483463	     13.89026487	     -4.61435543	      6.74873807	      8.52244748	    -19.20874748	     -6.42891890	     65.98402943	    146.67001699	     13.06995302	      8.89906534	    -32.23750828	      7.17693648	    -22.21442814	     -7.86344596	     65.78691564	    130.36024706	     -0.07909689	      8.20048927	     16.24079592
      0.02750000	      3.65422642	    -10.50062345	     84.63990589	      0.04142750	      2.02149412	      1.95722735	     56.39817686	      5.50521378	     -0.77331689	    -83.90171528	     25.18174988	     -1.28169178	    -13.60514325	     57.15722074	     -9.17610639	     -1.22840930	    -90.47891006	     21.58691288	      2.42425293	     14.44165940	    -43.52200470	      2.62114941	      3.42508329	     14.06458720	     -4.72519016	      6.83089176	      8.60150095	    -19.48797677	     -5.88485959	     65.70461369	    145.94668065	     13.10002207	      9.67062360	    -32.71986800	      7.02542724	    -22.47148037	     -7.31907629	     65.41483672	    127.25858196	     -0.78677699	      8.72339618	     15.49888235
      0.03000000	      3.64334471	    -10.50896209	     84.65430001	      0.04150808	      2.02143994	      1.95743362	     56.43400794	      5.50080860	     -0.76615900	    -83.89319283	     25.18439108	     -1.28232607	    -13.60431291	     57.19399405	     -9.17354509	     -1.22560684	    -90.47421674	     21.58815204	      2.42513639	     14.44446062	    -43.62795757	      2.60979950	      3.43794775	     14.06728539	     -4.72425062	      6.83169224	      8.54381165	    -19.50661291	     -5.88896432	     65.65048349	    145.94829921	     13.10805437	      9.67837548	    -32.71809421	      6.95611425	    -22.48005654	     -7.31439620	     65.36545315	    127.25921256	     -0.78251960	      8.73258681	     15.49825126
      0.03250000	      3.55180388	    -10.55511737	     84.74854134	      0.04139155	      2.02104567	      1.95729526	     56.53246905	      5.33890561	     -0.75111074	    -84.03574039	     25.16983357	     -1.15222609	    -13.43729166	     57.30655176	     -9.01925242	     -1.18365508	    -90.57563487	     21.44313342	      2.68497816	     15.23852260	    -43.60104459	      2.58244233	      3.39243487	     14.26788767	     -4.57849423	      6.79195047	      8.53651357	    -19.70749117	     -5.68221897	     65.20833898	    145.70706864	     13.16920478	      9.41470746	    -32.90945559	      6.99365069	    -22.82975699	     -6.67250738	     65.02983565	    125.69225229	     -0.78267347	      8.62327615	     14.96141609
      0.03500000	      3.54261626	    -10.56671081	     84.75770831	      0.04146272	      2.02098737	      1.95747578	     56.56719757	      5.33395267	     -0.74877930	    -84.02985592	     25.17360545	     -1.15406591	    -13.43640922	     57.33829514	     -9.01953932	     -1.18494306	    -90.56844233	     21.44603793	      2.68339576	     15.24115838	    -43.70122613	      2.57609493	      3.40504999	     14.26868190	     -4.57959766	      6.79239637	      8.48449411	    -19.72369107	     -5.68755838	     65.16062299	    145.70977451	     13.17551211	      9.42552381	    -32.90807451	      6.92839651	    -22.83742926	     -6.67198290	     64.98344051	    125.69150516	     -0.78019484	      8.63277602	     14.96009435
      0.03750000	      3.53412028	    -10.55037515	     84.75965095	      0.04144583	      2.02065054	      1.95731173	     56.60241202	      5.30144256	     -0.77243052	    -84.17772989	     25.20087276	     -1.17064154	    -13.42184275	     57.36752219	     -9.02412997	     -1.20091795	    -90.68890195	     21.46482083	      2.66548219	     15.29602370	    -43.75929118	      2.57475287	      3.46725791	     14.43740463	     -4.59436239	      6.78436940	      8.45523046	    -19.79438953	     -5.69388827	     64.87294707	    145.74095817	     13.21121970	      9.51386334	    -32.90551579	      6.87793706	    -22.81695827	     -6.65174433	     64.82625263	    125.58463652	     -0.78031231	      8.64786211	     14.92154867
      0.04000000	      3.52280523	    -10.56658587	     84.77200938	      0.04153427	      2.02060356	      1.95745280	     56.63208566	      5.29664128	     -0.76811182	    -84.16779083	     25.20263520	     -1.17073949	    -13.42112474	     57.39628003	     -9.02412591	     -1.20214725	    -90.68041148	     21.46629587	      2.66527985	     15.29865863	    -43.85047354	      2.57055245	      3.47975788	     14.43953687	     -4.59493153	      6.78389302	      8.40196380	    -19.80889302	     -5.69234328	     64.82626343	    145.74447943	     13.21870670	      9.52277799	    -32.90361057	      6.82254620	    -22.83216441	     -6.65297760	     64.78600474	    125.58105537	     -0.77680750	      8.65333807	     14.92098832
